<?xml version="1.0" standalone="no"?>
<!DOCTYPE svg PUBLIC "-//W3C//DTD SVG 1.0//EN" "http://www.w3.org/TR/2001/REC-SVG-20010904/DTD/svg10.dtd">
<svg xmlns="http://www.w3.org/2000/svg" xmlns:xlink="http://www.w3.org/1999/xlink" id="body_1" width="63" height="62">

<g transform="matrix(0.13263159 0 0 0.13263159 -0 0.5915803)">
	<g transform="matrix(0.1 0 -0 -0.1 0 463)">
        <path d="M2190 4621L2135 4615L2092 4460C 2069 4375 2046 4299 2041 4291C 2037 4282 1990 4267 1929 4254C 1872 4242 1803 4225 1775 4216C 1729 4202 1724 4202 1709 4218C 1700 4227 1651 4282 1600 4340C 1549 4398 1504 4449 1500 4454C 1482 4473 1010 4214 1010 4185C 1010 4179 1033 4107 1060 4025C 1088 3943 1110 3873 1110 3870C 1110 3866 1059 3816 996 3757L996 3757L882 3650L736 3720C 656 3759 586 3790 581 3790C 551 3790 384 3563 301 3410L301 3410L261 3335L382 3213L504 3091L454 2945C 415 2829 401 2798 385 2795C 374 2793 302 2784 225 2775C 148 2766 78 2756 68 2754C 56 2750 48 2726 36 2662C 16 2550 0 2387 0 2295L0 2295L0 2223L144 2182C 223 2159 298 2136 312 2131C 334 2123 337 2112 354 1994C 384 1791 395 1820 243 1726C 170 1681 105 1639 99 1633C 80 1614 167 1364 254 1192C 288 1124 293 1119 318 1124C 429 1146 642 1182 644 1179C 645 1177 662 1153 680 1125C 744 1029 844 909 856 914C 882 924 1290 1263 1290 1275C 1290 1282 1283 1293 1275 1300C 1247 1323 1122 1516 1077 1606C 1020 1719 968 1867 938 2002C 909 2133 907 2383 934 2523C 1092 3336 1870 3860 2675 3695C 3229 3582 3675 3147 3807 2592C 3841 2445 3850 2180 3826 2028C 3786 1788 3666 1519 3522 1345C 3499 1318 3480 1293 3480 1290C 3480 1284 3689 1109 3830 996L3830 996L3925 921L3953 953C 3968 971 4009 1025 4043 1073C 4077 1122 4110 1168 4115 1176C 4123 1187 4150 1184 4279 1155C 4364 1136 4439 1120 4445 1120C 4462 1120 4582 1377 4625 1504L4625 1504L4661 1613L4633 1636C 4618 1649 4554 1696 4492 1741C 4388 1815 4378 1825 4383 1849C 4386 1863 4394 1913 4400 1960C 4406 2007 4415 2060 4419 2079L4419 2079L4425 2113L4588 2168C 4743 2219 4750 2223 4750 2248C 4750 2359 4709 2724 4695 2739C 4693 2740 4616 2752 4525 2765C 4433 2778 4357 2790 4356 2792C 4355 2793 4344 2829 4331 2870C 4318 2911 4297 2972 4284 3004L4284 3004L4260 3063L4381 3186L4503 3309L4440 3417C 4388 3507 4287 3657 4226 3733C 4213 3750 4204 3748 4054 3690L4054 3690L3897 3630L3831 3698C 3795 3736 3743 3785 3716 3808L3716 3808L3667 3850L3714 4012L3762 4174L3728 4201C 3678 4243 3549 4318 3420 4382L3420 4382L3305 4438L3175 4316L3045 4194L2970 4217C 2929 4230 2860 4247 2818 4257L2818 4257L2741 4273L2702 4437C 2680 4527 2660 4603 2658 4606C 2640 4624 2315 4634 2190 4621zM2567 4534C 2596 4528 2597 4527 2635 4364L2635 4364L2673 4201L2729 4190C 2819 4172 2899 4151 2987 4123L2987 4123L3068 4096L3157 4177C 3205 4222 3261 4274 3279 4294C 3298 4314 3321 4330 3329 4330C 3348 4330 3537 4229 3610 4180L3610 4180L3668 4140L3624 3993C 3600 3911 3580 3838 3580 3829C 3580 3820 3614 3784 3656 3749C 3698 3714 3765 3650 3805 3608L3805 3608L3877 3530L4030 3590C 4114 3622 4187 3647 4191 3645C 4200 3639 4340 3428 4374 3368C 4395 3330 4398 3319 4388 3308C 4381 3300 4328 3246 4271 3188L4271 3188L4167 3081L4210 2970C 4233 2909 4260 2827 4270 2789C 4280 2750 4290 2717 4292 2715C 4294 2713 4370 2701 4462 2689L4462 2689L4628 2666L4641 2581C 4648 2534 4654 2446 4654 2386L4654 2386L4655 2277L4500 2225L4346 2174L4329 2034C 4319 1958 4306 1876 4301 1853C 4295 1830 4290 1805 4290 1797C 4290 1789 4351 1739 4425 1686C 4499 1633 4560 1582 4560 1574C 4560 1550 4491 1371 4448 1287C 4418 1227 4405 1210 4392 1214C 4365 1222 4101 1280 4091 1280C 4086 1280 4049 1231 4010 1171C 3971 1111 3933 1056 3926 1050C 3915 1042 3884 1063 3789 1139C 3721 1194 3650 1251 3631 1267L3631 1267L3598 1296L3654 1379C 4156 2115 3949 3105 3195 3577C 3039 3675 2850 3747 2645 3787C 2505 3814 2237 3811 2093 3782C 1794 3722 1530 3585 1317 3381C 1161 3231 1069 3105 981 2920C 886 2720 842 2541 833 2320C 820 1992 916 1677 1123 1366L1123 1366L1182 1277L1150 1252C 1132 1238 1061 1180 991 1124L991 1124L865 1021L842 1048C 830 1063 789 1119 753 1173C 716 1226 682 1270 676 1270C 663 1270 396 1223 363 1215C 344 1211 336 1218 312 1267C 270 1351 188 1570 194 1585C 196 1592 256 1632 327 1675C 397 1718 461 1758 467 1764C 477 1773 475 1803 455 1905C 442 1977 428 2069 425 2111L425 2111L418 2188L254 2236L90 2284L90 2368C 90 2454 116 2660 128 2672C 132 2675 211 2688 305 2700C 398 2711 475 2722 475 2723C 475 2724 491 2775 509 2835C 527 2896 557 2981 575 3024L575 3024L609 3103L488 3227L366 3350L390 3393C 420 3449 533 3616 569 3660L569 3660L598 3694L750 3622L903 3549L994 3637C 1044 3686 1114 3751 1149 3781L1149 3781L1213 3837L1161 3991C 1133 4076 1110 4148 1110 4152C 1110 4169 1434 4350 1464 4350C 1472 4350 1529 4294 1590 4226L1590 4226L1700 4102L1793 4131C 1843 4147 1935 4170 1997 4182L1997 4182L2108 4203L2150 4354C 2173 4437 2194 4513 2196 4523C 2201 4538 2218 4540 2369 4540C 2462 4540 2551 4537 2567 4534z" stroke="none" fill="#000000" fill-rule="nonzero" />
        <path d="M2328 4033L2325 3986L2297 4028C 2255 4092 2240 4084 2240 4000C 2240 3944 2243 3930 2255 3930C 2266 3930 2270 3942 2270 3978L2270 3978L2270 4025L2301 3978C 2341 3917 2360 3915 2360 3974C 2360 4071 2334 4120 2328 4033z" stroke="none" fill="#000000" fill-rule="nonzero" />
        <path d="M2440 4036C 2440 4012 2437 3978 2434 3961C 2429 3937 2431 3930 2443 3930C 2460 3930 2470 3970 2470 4036C 2470 4068 2466 4080 2455 4080C 2444 4080 2440 4068 2440 4036z" stroke="none" fill="#000000" fill-rule="nonzero" />
        <path d="M2496 4024C 2487 3952 2488 3930 2504 3930C 2515 3930 2520 3944 2522 3978L2522 3978L2526 4025L2550 3973C 2573 3923 2596 3905 2604 3933C 2607 3939 2611 3971 2613 4003C 2620 4073 2598 4084 2584 4018L2584 4018L2575 3975L2555 4022C 2528 4086 2505 4086 2496 4024z" stroke="none" fill="#000000" fill-rule="nonzero" />
        <path d="M2127 4053C 2116 4033 2098 3919 2105 3912C 2109 3908 2119 3915 2127 3928C 2144 3953 2185 3958 2194 3935C 2197 3927 2206 3923 2214 3926C 2226 3931 2223 3943 2197 3996C 2177 4038 2160 4060 2148 4060C 2139 4060 2129 4057 2127 4053zM2170 3978C 2170 3974 2163 3970 2155 3970C 2145 3970 2140 3980 2140 3998C 2141 4024 2141 4024 2155 4006C 2163 3995 2170 3983 2170 3978z" stroke="none" fill="#000000" fill-rule="nonzero" />
        <path d="M2652 4038C 2629 4015 2639 3991 2680 3970C 2721 3949 2725 3930 2689 3930C 2678 3930 2667 3937 2664 3945C 2656 3964 2630 3965 2630 3946C 2630 3927 2669 3900 2696 3900C 2718 3900 2750 3928 2750 3948C 2750 3955 2732 3971 2710 3985C 2687 3999 2672 4015 2675 4020C 2684 4035 2710 4032 2716 4015C 2723 3997 2750 3995 2750 4013C 2750 4035 2728 4050 2695 4050C 2678 4050 2659 4045 2652 4038z" stroke="none" fill="#000000" fill-rule="nonzero" />
        <path d="M2034 4008C 2038 3990 2043 3958 2047 3938C 2050 3915 2058 3900 2066 3900C 2083 3900 2083 3911 2069 3983C 2061 4022 2052 4040 2042 4040C 2031 4040 2029 4033 2034 4008z" stroke="none" fill="#000000" fill-rule="nonzero" />
        <path d="M2780 4020C 2780 4015 2787 4007 2797 4002C 2811 3994 2812 3987 2802 3947C 2787 3888 2787 3880 2804 3880C 2813 3880 2823 3900 2831 3936C 2842 3987 2845 3991 2867 3985C 2883 3981 2890 3984 2890 3994C 2890 4002 2872 4012 2846 4019C 2791 4032 2780 4033 2780 4020z" stroke="none" fill="#000000" fill-rule="nonzero" />
        <path d="M1899 4013C 1884 4009 1884 4004 1900 3942C 1916 3879 1918 3875 1944 3877C 1991 3880 2020 3906 2020 3943C 2020 3993 1996 4020 1952 4019C 1932 4018 1908 4016 1899 4013zM1980 3981C 1996 3951 1992 3922 1971 3910C 1960 3905 1949 3900 1946 3900C 1937 3900 1919 3980 1925 3990C 1935 4007 1969 4001 1980 3981z" stroke="none" fill="#000000" fill-rule="nonzero" />
        <path d="M2890 3933C 2874 3881 2872 3865 2882 3859C 2896 3850 2899 3857 2924 3938C 2936 3981 2936 3989 2925 3994C 2914 3998 2905 3981 2890 3933z" stroke="none" fill="#000000" fill-rule="nonzero" />
        <path d="M1820 3986C 1820 3984 1827 3963 1835 3940C 1852 3893 1849 3893 1790 3947C 1774 3961 1760 3966 1751 3961C 1732 3949 1775 3819 1795 3826C 1806 3831 1806 3838 1794 3872C 1786 3894 1780 3915 1780 3917C 1780 3920 1801 3906 1826 3885C 1854 3862 1875 3851 1881 3857C 1894 3870 1852 3990 1834 3990C 1826 3990 1820 3988 1820 3986z" stroke="none" fill="#000000" fill-rule="nonzero" />
        <path d="M2950 3970C 2950 3965 2953 3960 2958 3960C 2984 3959 2990 3943 2976 3909C 2950 3844 2948 3830 2964 3830C 2973 3830 2986 3850 2997 3881C 3012 3924 3018 3931 3037 3927C 3079 3919 3067 3945 3021 3962C 2969 3982 2950 3984 2950 3970z" stroke="none" fill="#000000" fill-rule="nonzero" />
        <path d="M1463 3933C 1445 3926 1447 3895 1465 3880C 1479 3869 1472 3861 1418 3827C 1323 3767 1200 3669 1206 3658C 1210 3653 1217 3653 1224 3659C 1239 3672 1260 3654 1260 3628C 1260 3615 1268 3610 1286 3610C 1305 3610 1311 3614 1307 3624C 1304 3632 1307 3644 1315 3650C 1326 3659 1335 3655 1359 3628C 1376 3610 1390 3601 1390 3608C 1390 3621 1420 3625 1420 3612C 1420 3598 1397 3580 1378 3580C 1368 3580 1360 3576 1360 3570C 1360 3555 1393 3558 1418 3576C 1450 3598 1444 3634 1408 3638C 1391 3640 1369 3657 1346 3685L1346 3685L1310 3728L1352 3759C 1393 3789 1394 3789 1407 3770C 1421 3750 1417 3730 1399 3730C 1393 3730 1392 3739 1395 3751C 1401 3769 1399 3770 1382 3761C 1342 3740 1345 3694 1387 3684C 1402 3680 1417 3683 1429 3694C 1442 3706 1449 3707 1458 3698C 1484 3672 1480 3702 1451 3750C 1434 3778 1420 3802 1420 3805C 1420 3808 1438 3819 1460 3830C 1500 3850 1519 3841 1480 3820C 1436 3797 1471 3762 1524 3776C 1545 3781 1549 3779 1544 3767C 1541 3758 1530 3750 1519 3748C 1508 3746 1498 3741 1497 3735C 1494 3722 1588 3718 1595 3730C 1599 3736 1592 3740 1580 3740C 1564 3740 1561 3745 1565 3763C 1568 3775 1566 3791 1561 3799C 1553 3811 1547 3812 1524 3802C 1491 3786 1479 3795 1507 3815C 1521 3825 1526 3837 1523 3850C 1520 3862 1523 3870 1529 3870C 1536 3870 1539 3874 1536 3879C 1533 3883 1519 3885 1505 3883C 1487 3879 1478 3883 1473 3896C 1469 3906 1471 3915 1478 3918C 1485 3920 1490 3926 1490 3931C 1490 3941 1482 3941 1463 3933zM1417 3709C 1403 3701 1395 3701 1387 3709C 1379 3717 1384 3720 1406 3720C 1431 3719 1433 3718 1417 3709zM1304 3694C 1311 3675 1303 3660 1285 3660C 1267 3660 1259 3685 1273 3699C 1288 3714 1297 3713 1304 3694z" stroke="none" fill="#000000" fill-rule="nonzero" />
        <path d="M1686 3918C 1706 3853 1736 3801 1748 3808C 1764 3819 1713 3940 1693 3940C 1683 3940 1681 3933 1686 3918z" stroke="none" fill="#000000" fill-rule="nonzero" />
        <path d="M3064 3877C 3040 3821 3044 3799 3081 3779C 3118 3760 3146 3776 3170 3831C 3201 3904 3181 3920 3146 3851C 3105 3771 3062 3790 3094 3873C 3113 3924 3114 3930 3098 3930C 3091 3930 3075 3906 3064 3877z" stroke="none" fill="#000000" fill-rule="nonzero" />
        <path d="M3210 3860C 3210 3855 3217 3847 3226 3842C 3241 3834 3240 3828 3216 3788C 3187 3739 3184 3720 3203 3720C 3209 3720 3226 3741 3239 3766C 3260 3804 3267 3810 3286 3806C 3327 3795 3321 3818 3276 3844C 3229 3871 3210 3876 3210 3860z" stroke="none" fill="#000000" fill-rule="nonzero" />
        <path d="M3296 3744C 3275 3713 3260 3687 3262 3686C 3283 3669 3346 3630 3352 3630C 3371 3630 3357 3657 3330 3673C 3312 3684 3303 3696 3307 3705C 3314 3724 3320 3724 3348 3704C 3383 3680 3397 3699 3364 3725C 3329 3753 3339 3769 3377 3749C 3393 3742 3408 3734 3413 3732C 3417 3730 3420 3734 3420 3742C 3420 3755 3359 3800 3342 3800C 3337 3800 3316 3775 3296 3744z" stroke="none" fill="#000000" fill-rule="nonzero" />
        <path d="M1255 3770C 1247 3757 1259 3738 1271 3745C 1283 3753 1283 3780 1271 3780C 1265 3780 1258 3776 1255 3770z" stroke="none" fill="#000000" fill-rule="nonzero" />
        <path d="M3483 3669C 3472 3665 3455 3651 3446 3638C 3395 3565 3483 3487 3545 3551C 3579 3587 3584 3613 3560 3642C 3537 3672 3513 3680 3483 3669zM3534 3634C 3555 3613 3554 3606 3526 3573C 3506 3550 3498 3547 3483 3556C 3457 3572 3455 3605 3479 3629C 3504 3654 3514 3655 3534 3634z" stroke="none" fill="#000000" fill-rule="nonzero" />
        <path d="M3571 3536C 3536 3501 3522 3480 3530 3475C 3536 3471 3549 3475 3559 3484C 3569 3493 3580 3500 3585 3500C 3590 3500 3601 3493 3611 3484C 3639 3459 3656 3478 3630 3505C 3597 3540 3616 3558 3650 3525C 3693 3484 3701 3514 3659 3556L3659 3556L3624 3590L3571 3536z" stroke="none" fill="#000000" fill-rule="nonzero" />
        <path d="M1024 3502C 915 3376 894 3348 917 3352C 942 3356 980 3324 980 3300C 980 3290 973 3277 965 3270C 952 3259 950 3261 950 3283C 950 3315 927 3334 896 3326C 870 3320 857 3298 866 3275C 873 3258 896 3255 905 3270C 908 3276 906 3280 901 3280C 895 3280 890 3287 890 3295C 890 3313 902 3314 918 3298C 935 3281 933 3277 904 3245C 877 3215 877 3203 907 3218C 917 3224 937 3233 953 3239C 968 3245 986 3261 992 3275C 999 3291 1009 3299 1018 3295C 1055 3281 1045 3305 999 3342C 963 3370 951 3385 959 3393C 966 3400 983 3393 1016 3367C 1079 3317 1095 3332 1035 3385L1035 3385L986 3427L1020 3468C 1038 3491 1057 3510 1061 3510C 1081 3510 1079 3487 1054 3455C 1032 3425 1030 3419 1044 3414C 1069 3404 1089 3417 1083 3438C 1075 3469 1099 3475 1126 3449C 1143 3433 1153 3429 1161 3437C 1168 3444 1157 3460 1125 3488C 1099 3511 1081 3533 1084 3539C 1088 3544 1087 3551 1082 3554C 1077 3557 1051 3533 1024 3502z" stroke="none" fill="#000000" fill-rule="nonzero" />
        <path d="M3735 3443C 3738 3433 3742 3422 3743 3419C 3744 3416 3726 3397 3703 3378C 3675 3355 3665 3339 3670 3330C 3676 3320 3690 3327 3725 3356C 3767 3390 3773 3392 3784 3378C 3791 3369 3801 3365 3807 3368C 3815 3373 3807 3390 3783 3418C 3747 3461 3723 3474 3735 3443z" stroke="none" fill="#000000" fill-rule="nonzero" />
        <path d="M3775 3319C 3753 3303 3731 3285 3727 3281C 3718 3272 3766 3190 3780 3190C 3798 3190 3798 3205 3778 3232C 3762 3255 3760 3264 3770 3273C 3779 3282 3787 3278 3804 3256C 3832 3222 3849 3237 3825 3274C 3798 3314 3818 3326 3849 3289C 3864 3271 3879 3261 3883 3267C 3891 3279 3843 3350 3827 3350C 3820 3350 3797 3336 3775 3319z" stroke="none" fill="#000000" fill-rule="nonzero" />
        <path d="M818 3224C 766 3142 708 3018 718 3008C 724 3002 732 3010 738 3030C 748 3058 751 3060 771 3049C 791 3039 791 3037 777 3028C 730 3002 779 2995 853 3016C 882 3025 872 3042 841 3035C 805 3027 793 3050 821 3074C 839 3089 843 3089 870 3075C 923 3047 905 3082 850 3113C 822 3129 800 3143 800 3146C 800 3149 807 3164 815 3180C 825 3199 835 3207 845 3204C 862 3197 865 3184 850 3175C 832 3164 840 3150 864 3150C 902 3150 950 3162 950 3171C 950 3176 938 3180 924 3180C 899 3180 863 3213 849 3249C 845 3261 836 3254 818 3224zM810 3091C 810 3066 800 3059 779 3071C 764 3079 762 3085 770 3100C 782 3123 810 3116 810 3091z" stroke="none" fill="#000000" fill-rule="nonzero" />
        <path d="M3843 3210C 3816 3194 3810 3184 3810 3157C 3810 3119 3835 3090 3868 3090C 3898 3090 3896 3108 3864 3120C 3830 3133 3835 3169 3873 3190C 3899 3204 3902 3204 3916 3186C 3924 3175 3928 3158 3925 3149C 3917 3124 3937 3116 3949 3139C 3969 3175 3932 3230 3888 3230C 3881 3230 3860 3221 3843 3210z" stroke="none" fill="#000000" fill-rule="nonzero" />
        <path d="M725 3170C 721 3164 722 3154 728 3148C 734 3142 740 3142 745 3150C 749 3156 748 3166 742 3172C 736 3178 730 3178 725 3170z" stroke="none" fill="#000000" fill-rule="nonzero" />
        <path d="M3916 3079C 3877 3058 3861 3045 3868 3038C 3875 3031 3885 3032 3901 3040C 3920 3051 3925 3050 3937 3034C 3955 3009 3953 3001 3925 2988C 3911 2982 3900 2973 3900 2969C 3900 2949 3924 2952 3979 2980C 4021 3001 4038 3014 4034 3024C 4029 3036 4023 3037 4003 3027C 3984 3018 3977 3019 3969 3031C 3955 3054 3958 3068 3981 3075C 4001 3082 4003 3101 3984 3106C 3979 3108 3949 3095 3916 3079z" stroke="none" fill="#000000" fill-rule="nonzero" />
        <path d="M3980 2948C 3915 2923 3913 2923 3926 2910C 3933 2903 3948 2905 3973 2915C 4025 2937 4026 2935 3987 2887C 3937 2825 3949 2811 4029 2840C 4063 2853 4090 2869 4090 2876C 4090 2893 4092 2893 4041 2875L4041 2875L3999 2861L4020 2890C 4032 2906 4045 2922 4050 2925C 4065 2934 4062 2970 4048 2969C 4041 2969 4010 2960 3980 2948z" stroke="none" fill="#000000" fill-rule="nonzero" />
        <path d="M650 2860C 650 2855 639 2850 626 2850C 588 2850 569 2839 559 2812C 548 2783 562 2760 591 2760C 613 2760 614 2758 598 2688C 590 2648 576 2624 543 2589C 505 2550 499 2538 502 2509C 504 2480 509 2475 533 2472C 571 2467 568 2437 525 2404C 506 2390 490 2371 490 2362C 490 2351 498 2354 520 2375L520 2375L550 2404L550 2319C 550 2273 553 2225 556 2214C 560 2197 554 2188 526 2170C 506 2158 492 2144 496 2139C 499 2134 515 2139 531 2150C 565 2175 569 2166 538 2133C 526 2120 520 2107 524 2103C 528 2098 538 2104 546 2114C 561 2136 565 2130 574 2066C 580 2019 588 2009 601 2033C 607 2042 620 2050 630 2050C 641 2050 654 2059 660 2071C 671 2091 672 2091 685 2073C 692 2063 702 2058 706 2063C 710 2067 703 2081 690 2095L690 2095L666 2121L688 2127C 700 2130 710 2137 710 2143C 710 2149 687 2150 645 2146C 593 2141 580 2142 580 2153C 580 2168 621 2180 671 2180C 690 2180 700 2185 700 2195C 700 2207 688 2208 635 2203L635 2203L570 2197L570 2239C 570 2261 575 2280 580 2280C 586 2280 590 2268 590 2254C 590 2229 592 2229 633 2235C 689 2245 705 2273 680 2321C 672 2336 673 2340 685 2340C 693 2340 700 2347 700 2355C 700 2367 688 2368 635 2363C 573 2357 570 2358 570 2379C 570 2398 575 2400 635 2400C 672 2400 700 2404 700 2410C 700 2416 687 2420 671 2420C 617 2420 580 2432 580 2449C 580 2464 588 2465 638 2459C 669 2456 698 2455 703 2457C 724 2469 704 2478 645 2485C 590 2491 580 2495 580 2511C 580 2524 587 2530 604 2530C 617 2530 630 2524 633 2518C 636 2508 640 2508 653 2519C 679 2540 674 2547 629 2554C 597 2559 589 2564 594 2576C 597 2585 600 2593 600 2595C 600 2596 627 2592 660 2585C 692 2578 722 2575 725 2578C 738 2592 725 2599 667 2610L667 2610L603 2622L613 2666C 623 2709 625 2711 654 2704C 691 2697 705 2686 696 2671C 685 2654 660 2658 660 2676C 660 2685 655 2690 649 2688C 643 2686 639 2681 639 2677C 640 2673 640 2664 640 2656C 640 2620 706 2628 716 2665C 720 2680 727 2687 736 2683C 744 2680 750 2684 750 2692C 750 2700 735 2710 718 2715C 700 2721 684 2733 682 2743C 678 2765 698 2765 722 2743C 744 2724 759 2734 744 2758C 738 2767 719 2776 702 2778C 675 2781 670 2777 664 2755C 658 2731 638 2723 639 2745C 642 2780 654 2820 661 2820C 666 2820 693 2811 722 2800C 785 2776 780 2777 780 2793C 780 2801 755 2815 725 2825C 695 2836 670 2850 670 2857C 670 2864 666 2870 660 2870C 655 2870 650 2866 650 2860zM628 2808C 625 2783 594 2772 577 2789C 563 2803 586 2830 612 2830C 626 2830 631 2824 628 2808zM565 2531C 560 2500 554 2490 539 2490C 513 2490 514 2527 542 2557C 569 2586 574 2581 565 2531zM656 2323C 674 2299 673 2270 655 2270C 647 2270 640 2277 640 2286C 640 2294 635 2298 629 2295C 623 2291 621 2282 624 2274C 627 2267 625 2258 620 2255C 614 2251 610 2261 610 2275C 610 2293 604 2304 590 2307C 579 2310 570 2319 570 2326C 570 2347 640 2344 656 2323zM644 2103C 651 2085 635 2070 608 2070C 590 2070 583 2100 597 2113C 609 2126 638 2120 644 2103z" stroke="none" fill="#000000" fill-rule="nonzero" />
        <path d="M4005 2795C 3975 2765 3974 2741 4001 2706C 4041 2655 4130 2688 4130 2754C 4130 2819 4053 2844 4005 2795zM4101 2774C 4118 2754 4103 2729 4067 2716C 4037 2705 4010 2722 4010 2751C 4010 2787 4076 2804 4101 2774z" stroke="none" fill="#000000" fill-rule="nonzero" />
        <path d="M4062 2657C 4021 2649 4011 2644 4014 2631C 4016 2622 4021 2600 4025 2583C 4029 2565 4038 2550 4045 2550C 4055 2550 4056 2559 4050 2584C 4041 2623 4043 2625 4114 2635C 4142 2640 4159 2647 4157 2654C 4152 2669 4126 2670 4062 2657z" stroke="none" fill="#000000" fill-rule="nonzero" />
        <path d="M4080 2543C 4038 2528 4026 2464 4060 2430C 4102 2388 4190 2422 4190 2481C 4190 2533 4137 2563 4080 2543zM4144 2514C 4182 2499 4152 2440 4106 2440C 4090 2440 4060 2466 4060 2480C 4060 2508 4108 2528 4144 2514z" stroke="none" fill="#000000" fill-rule="nonzero" />
        <path d="M4070 2370C 4049 2349 4043 2305 4060 2295C 4065 2292 4067 2283 4063 2275C 4059 2263 4066 2260 4094 2260C 4127 2260 4130 2262 4130 2290C 4130 2307 4126 2320 4120 2320C 4115 2320 4110 2313 4110 2304C 4110 2280 4085 2293 4082 2320C 4078 2347 4094 2360 4132 2360C 4168 2360 4184 2331 4164 2302C 4143 2272 4156 2253 4181 2276C 4226 2316 4190 2390 4125 2390C 4103 2390 4082 2382 4070 2370z" stroke="none" fill="#000000" fill-rule="nonzero" />
        <path d="M4150 2220C 4131 2209 4100 2201 4082 2200C 4041 2200 4043 2177 4085 2172C 4100 2170 4130 2158 4151 2145C 4181 2125 4189 2124 4194 2135C 4197 2145 4188 2156 4167 2166L4167 2166L4135 2183L4168 2198C 4185 2207 4200 2220 4200 2227C 4200 2244 4192 2243 4150 2220z" stroke="none" fill="#000000" fill-rule="nonzero" />
        <path d="M4037 2019C 4029 1961 4043 1937 4081 1942C 4098 1945 4113 1943 4116 1938C 4122 1928 4141 1928 4157 1938C 4164 1943 4174 1967 4179 1992L4179 1992L4187 2039L4146 2045C 4123 2048 4091 2054 4074 2057C 4044 2062 4043 2060 4037 2019zM4095 2000C 4095 1984 4089 1974 4078 1972C 4064 1969 4060 1975 4060 2000C 4060 2025 4064 2031 4078 2028C 4089 2026 4095 2016 4095 2000zM4152 1994C 4150 1984 4144 1971 4139 1966C 4128 1954 4116 1985 4124 2006C 4132 2028 4156 2017 4152 1994z" stroke="none" fill="#000000" fill-rule="nonzero" />
        <path d="M4026 1897C 4012 1882 4000 1860 4000 1847C 4000 1812 4039 1780 4082 1780C 4124 1780 4150 1805 4150 1847C 4150 1882 4126 1907 4083 1916C 4057 1921 4046 1917 4026 1897zM4111 1871C 4131 1855 4133 1848 4124 1833C 4102 1796 4030 1809 4030 1849C 4030 1890 4073 1902 4111 1871z" stroke="none" fill="#000000" fill-rule="nonzero" />
        <path d="M700 1844C 675 1836 645 1832 633 1835L633 1835L612 1840L632 1767C 643 1728 654 1693 656 1691C 658 1689 648 1674 635 1658C 605 1623 604 1609 628 1580C 644 1560 649 1559 669 1569C 682 1576 693 1580 694 1578C 696 1576 728 1515 765 1443C 828 1320 850 1289 850 1324C 850 1331 857 1343 866 1351C 879 1361 883 1361 891 1349C 897 1339 893 1330 879 1319C 852 1299 856 1255 884 1255C 895 1255 905 1261 908 1269C 911 1279 908 1281 896 1277C 887 1273 880 1274 880 1279C 880 1294 907 1310 923 1304C 933 1301 941 1306 945 1319C 953 1345 944 1361 925 1353C 902 1345 907 1378 930 1390C 952 1402 957 1420 939 1420C 932 1420 906 1407 879 1390C 852 1374 828 1365 825 1370C 816 1385 828 1398 870 1420C 891 1431 912 1445 915 1451C 930 1474 908 1471 856 1441L856 1441L800 1410L785 1440C 768 1473 772 1490 797 1490C 807 1490 811 1484 807 1470C 804 1459 806 1448 811 1445C 824 1437 874 1540 862 1552C 856 1558 848 1549 840 1530C 830 1506 825 1502 813 1511C 803 1520 793 1520 776 1512C 750 1501 753 1498 713 1598C 702 1624 730 1609 745 1580C 766 1539 804 1539 825 1581C 847 1623 835 1631 805 1595C 781 1566 780 1566 765 1584C 743 1612 746 1619 785 1636C 804 1644 820 1655 820 1660C 820 1674 807 1672 755 1650C 729 1639 704 1632 699 1636C 677 1649 694 1667 745 1685C 775 1695 800 1709 800 1717C 800 1734 800 1734 740 1710C 675 1685 673 1685 666 1717C 657 1749 677 1765 701 1744C 725 1722 754 1758 745 1799C 741 1819 742 1830 749 1830C 755 1830 760 1837 760 1845C 760 1863 758 1863 700 1844zM718 1808C 740 1786 730 1775 690 1775C 668 1775 650 1778 650 1782C 650 1787 650 1793 649 1798C 649 1802 659 1808 672 1812C 706 1821 705 1821 718 1808zM678 1623C 680 1611 674 1600 665 1596C 633 1584 617 1613 642 1638C 659 1655 674 1648 678 1623z" stroke="none" fill="#000000" fill-rule="nonzero" />
        <path d="M3980 1767C 3980 1759 3997 1746 4018 1737L4018 1737L4055 1721L4010 1723C 3952 1725 3946 1703 3997 1672C 4034 1650 4034 1649 4005 1656C 3959 1666 3955 1666 3950 1655C 3947 1650 3972 1635 4005 1623C 4080 1596 4077 1596 4083 1621C 4087 1637 4079 1648 4042 1672L4042 1672L3995 1702L4051 1695C 4099 1690 4108 1691 4114 1706C 4122 1728 4116 1734 4060 1753C 4035 1761 4007 1771 3998 1775C 3986 1780 3980 1777 3980 1767z" stroke="none" fill="#000000" fill-rule="nonzero" />
        <path d="M3915 1590C 3895 1550 3896 1513 3919 1501C 3929 1495 3940 1494 3944 1497C 3947 1500 3959 1495 3970 1485C 3980 1476 3996 1470 4004 1473C 4018 1479 4065 1558 4058 1565C 4054 1569 3939 1620 3934 1620C 3932 1620 3924 1607 3915 1590zM3970 1566C 3970 1559 3964 1546 3957 1536C 3939 1511 3919 1535 3931 1567C 3940 1590 3970 1589 3970 1566zM4015 1550C 4024 1536 4000 1496 3989 1507C 3979 1517 3988 1560 4001 1560C 4005 1560 4012 1556 4015 1550z" stroke="none" fill="#000000" fill-rule="nonzero" />
        <path d="M3868 1498C 3864 1490 3866 1478 3872 1472C 3886 1458 3864 1420 3841 1420C 3830 1420 3820 1414 3817 1406C 3813 1395 3827 1389 3874 1381C 3908 1375 3944 1370 3952 1370C 3986 1370 3977 1400 3926 1456C 3886 1500 3872 1510 3868 1498zM3930 1409C 3930 1397 3903 1398 3895 1410C 3884 1427 3900 1442 3916 1429C 3924 1423 3930 1414 3930 1409z" stroke="none" fill="#000000" fill-rule="nonzero" />
        <path d="M3785 1350C 3781 1344 3792 1327 3809 1311C 3826 1295 3840 1278 3840 1273C 3841 1256 3869 1228 3879 1235C 3887 1239 3885 1251 3875 1271L3875 1271L3859 1300L3894 1300C 3915 1300 3930 1306 3934 1315C 3938 1327 3930 1330 3892 1330C 3865 1330 3835 1337 3824 1345C 3801 1362 3793 1363 3785 1350z" stroke="none" fill="#000000" fill-rule="nonzero" />
        <path d="M2357 3498C 2344 3480 2320 3446 2305 3423C 2274 3374 2269 3373 2253 3399C 2235 3428 2141 3470 2096 3470L2096 3470L2055 3470L2055 3408C 2054 3373 2051 3332 2047 3317L2047 3317L2039 3289L2007 3313C 1966 3344 1918 3360 1869 3360C 1825 3360 1824 3357 1845 3286C 1853 3259 1860 3226 1860 3214L1860 3214L1860 3191L1824 3215C 1782 3244 1716 3255 1678 3241C 1643 3228 1643 3218 1679 3172C 1695 3152 1711 3126 1714 3114C 1720 3095 1717 3094 1668 3097C 1627 3100 1608 3096 1582 3080C 1533 3050 1532 3035 1578 2991C 1603 2966 1635 2916 1665 2853C 1717 2743 1744 2710 1801 2685L1801 2685L1841 2667L1812 2636C 1795 2619 1771 2586 1757 2564C 1743 2541 1717 2512 1701 2500C 1672 2480 1671 2477 1684 2452C 1707 2408 1761 2363 1825 2333C 1900 2299 1995 2297 2084 2329L2084 2329L2143 2350L2176 2320C 2195 2304 2232 2283 2260 2273C 2287 2263 2310 2251 2310 2245C 2310 2240 2303 2213 2295 2186C 2286 2158 2280 2098 2280 2045L2280 2045L2280 1952L2188 1947C 2137 1944 2073 1937 2045 1931C 2018 1926 1955 1921 1905 1920L1905 1920L1815 1919L1675 1743C 1598 1646 1534 1561 1532 1555C 1530 1548 1541 1525 1555 1504C 1590 1452 1595 1425 1576 1395L1576 1395L1560 1370L1894 1370C 2222 1370 2230 1370 2266 1348C 2318 1317 2400 1317 2458 1348C 2500 1370 2508 1370 2836 1370L2836 1370L3171 1370L3151 1396C 3126 1428 3124 1479 3146 1521L3146 1521L3161 1552L3055 1730L2949 1908L2882 1908C 2837 1908 2787 1917 2730 1936C 2637 1966 2547 1971 2471 1950C 2447 1944 2425 1942 2422 1945C 2418 1949 2416 1995 2416 2048C 2417 2117 2423 2159 2436 2193C 2453 2237 2460 2243 2515 2265C 2548 2279 2581 2299 2589 2310C 2601 2328 2605 2329 2619 2316C 2628 2307 2665 2293 2700 2284C 2787 2262 2879 2269 2945 2303C 2998 2329 3090 2419 3090 2444C 3090 2459 3069 2470 3039 2470C 3009 2470 2973 2498 2949 2539C 2937 2559 2909 2593 2888 2616L2888 2616L2849 2657L2882 2671C 2937 2693 2995 2756 3052 2852C 3084 2907 3124 2959 3152 2984C 3179 3007 3200 3028 3200 3032C 3200 3036 3186 3047 3168 3056C 3144 3068 3119 3071 3063 3068C 2977 3062 2975 3066 3026 3140C 3054 3181 3059 3194 3049 3201C 3021 3218 2974 3220 2920 3206C 2890 3198 2864 3192 2864 3193C 2863 3194 2870 3225 2879 3263L2879 3263L2896 3331L2873 3336C 2842 3344 2792 3334 2745 3310C 2723 3299 2705 3290 2704 3290C 2699 3290 2713 3366 2726 3408L2726 3408L2738 3450L2687 3450C 2630 3450 2565 3425 2536 3391C 2525 3380 2511 3370 2505 3370C 2498 3370 2476 3399 2455 3435C 2434 3471 2409 3507 2399 3516C 2383 3530 2380 3529 2357 3498zM2455 3345C 2500 3250 2520 3161 2520 3056C 2520 2883 2458 2740 2382 2740C 2348 2740 2287 2806 2265 2867C 2242 2932 2234 3083 2250 3162C 2265 3241 2312 3356 2351 3410C 2381 3451 2382 3451 2401 3434C 2412 3424 2436 3384 2455 3345zM2194 3382C 2243 3336 2251 3303 2230 3240C 2180 3091 2186 2943 2245 2826C 2264 2788 2279 2756 2277 2754C 2276 2753 2258 2758 2236 2765C 2182 2784 2126 2842 2095 2912C 2050 3012 2051 3033 2106 3397C 2110 3427 2112 3429 2138 3419C 2153 3413 2178 3397 2194 3382zM2664 3383C 2660 3373 2656 3266 2655 3145L2655 3145L2655 2925L2622 2857C 2588 2789 2536 2740 2498 2740C 2474 2740 2475 2741 2515 2824C 2572 2942 2579 3093 2535 3247C 2527 3275 2523 3306 2526 3315C 2536 3340 2622 3399 2649 3400C 2667 3400 2671 3397 2664 3383zM1960 3295C 1976 3287 1998 3267 2009 3251C 2028 3225 2029 3213 2023 3114C 2017 2993 2031 2920 2074 2851C 2098 2814 2153 2761 2187 2742C 2217 2724 2195 2719 2142 2731C 2077 2744 2035 2773 1988 2835C 1937 2902 1913 2984 1905 3116C 1902 3176 1897 3244 1894 3268C 1889 3306 1891 3310 1910 3310C 1921 3310 1944 3303 1960 3295zM2830 3276C 2830 3220 2786 2949 2769 2906C 2733 2808 2671 2743 2598 2726C 2562 2718 2563 2725 2600 2756C 2672 2817 2715 2977 2703 3138C 2697 3219 2705 3236 2770 3271C 2812 3293 2830 3295 2830 3276zM1816 3175C 1854 3150 1867 3120 1873 3045C 1883 2916 1948 2797 2044 2733L2044 2733L2092 2700L2059 2700C 2011 2700 1930 2741 1892 2784C 1847 2835 1828 2877 1785 3015C 1764 3081 1739 3149 1728 3167C 1714 3190 1713 3199 1722 3203C 1739 3208 1787 3195 1816 3175zM2988 3163C 2963 3112 2939 3050 2920 2980C 2881 2844 2791 2729 2710 2714L2710 2714L2675 2707L2717 2751C 2776 2813 2816 2905 2838 3030C 2855 3133 2856 3135 2890 3152C 2925 3170 2995 3177 2988 3163zM1727 3032C 1741 3024 1755 2997 1770 2948C 1802 2844 1825 2802 1884 2746L1884 2746L1935 2697L1883 2702C 1793 2711 1759 2742 1696 2873C 1667 2934 1633 2994 1621 3004C 1610 3015 1600 3029 1600 3036C 1600 3060 1678 3058 1727 3032zM3102 3024C 3105 3021 3092 2995 3073 2967C 3054 2938 3025 2889 3009 2858C 2954 2749 2887 2695 2793 2684C 2748 2679 2746 2680 2765 2694C 2845 2758 2911 2842 2936 2912C 2955 2965 2975 2988 3025 3011C 3066 3030 3092 3034 3102 3024zM2476 2681C 2498 2671 2532 2644 2552 2621C 2610 2553 2611 2486 2555 2442C 2517 2412 2480 2407 2428 2425C 2394 2436 2375 2438 2355 2430C 2317 2416 2254 2418 2222 2434C 2118 2488 2173 2649 2308 2690C 2356 2704 2434 2700 2476 2681zM2140 2588C 2108 2529 2093 2511 2058 2493C 2001 2464 1891 2446 1813 2453C 1735 2461 1722 2467 1749 2487C 1760 2494 1781 2520 1795 2543C 1828 2600 1868 2636 1910 2648C 1929 2654 1998 2659 2062 2659L2062 2659L2179 2660L2140 2588zM2870 2579C 2895 2550 2937 2504 2963 2476C 3006 2431 3010 2424 2995 2413C 2971 2396 2881 2387 2823 2395C 2797 2399 2748 2412 2715 2424L2715 2424L2656 2447L2645 2506C 2639 2538 2624 2584 2612 2607C 2600 2630 2590 2651 2590 2652C 2590 2654 2643 2650 2708 2644L2708 2644L2825 2632L2870 2579zM2120 2440C 2120 2418 2116 2400 2110 2400C 2099 2400 2096 2463 2107 2473C 2118 2485 2120 2481 2120 2440zM2070 2415C 2070 2382 2066 2370 2055 2370C 2044 2370 2040 2381 2040 2409C 2040 2442 2045 2452 2068 2459C 2069 2460 2070 2440 2070 2415zM2020 2395C 2020 2362 2016 2350 2005 2350C 1994 2350 1990 2362 1990 2395C 1990 2428 1994 2440 2005 2440C 2016 2440 2020 2428 2020 2395zM1968 2391C 1970 2371 1966 2354 1959 2349C 1938 2337 1930 2348 1930 2391C 1930 2424 1933 2431 1948 2428C 1959 2426 1966 2414 1968 2391zM1800 2405C 1800 2397 1796 2390 1791 2390C 1786 2390 1777 2397 1770 2405C 1760 2418 1761 2420 1779 2420C 1791 2420 1800 2414 1800 2405zM1860 2389C 1860 2365 1857 2359 1844 2364C 1835 2367 1826 2370 1824 2370C 1822 2370 1820 2381 1820 2395C 1820 2413 1825 2420 1840 2420C 1856 2420 1860 2413 1860 2389zM1910 2385C 1910 2361 1905 2350 1895 2350C 1885 2350 1880 2361 1880 2385C 1880 2409 1885 2420 1895 2420C 1905 2420 1910 2409 1910 2385zM2566 2342C 2551 2327 2550 2329 2550 2362C 2550 2382 2556 2400 2563 2403C 2581 2409 2584 2360 2566 2342zM2210 2374C 2210 2352 2208 2349 2195 2360C 2187 2367 2180 2379 2180 2386C 2180 2394 2187 2400 2195 2400C 2205 2400 2210 2390 2210 2374zM2678 2360C 2681 2330 2680 2328 2666 2339C 2647 2355 2644 2404 2663 2398C 2669 2395 2676 2378 2678 2360zM2270 2350C 2270 2319 2267 2312 2255 2316C 2246 2320 2240 2335 2240 2356C 2240 2380 2245 2390 2255 2390C 2266 2390 2270 2379 2270 2350zM2400 2335C 2400 2287 2398 2280 2380 2280C 2363 2280 2360 2287 2360 2328C 2360 2379 2365 2390 2387 2390C 2396 2390 2400 2374 2400 2335zM2528 2348C 2526 2317 2520 2304 2508 2302C 2493 2299 2490 2306 2490 2344C 2490 2384 2493 2390 2511 2390C 2529 2390 2531 2385 2528 2348zM2340 2334C 2340 2296 2337 2289 2323 2292C 2310 2294 2304 2307 2302 2338C 2299 2375 2301 2380 2319 2380C 2337 2380 2340 2374 2340 2334zM2470 2335C 2470 2297 2467 2290 2450 2290C 2433 2290 2430 2297 2430 2335C 2430 2373 2433 2380 2450 2380C 2467 2380 2470 2373 2470 2335zM2740 2344C 2740 2329 2734 2320 2725 2320C 2715 2320 2710 2330 2710 2350C 2710 2372 2714 2378 2725 2374C 2733 2370 2740 2357 2740 2344zM2960 2355C 2947 2339 2920 2335 2920 2348C 2920 2362 2932 2370 2953 2370C 2969 2370 2970 2367 2960 2355zM2800 2335C 2800 2319 2794 2310 2785 2310C 2776 2310 2770 2319 2770 2335C 2770 2351 2776 2360 2785 2360C 2794 2360 2800 2351 2800 2335zM2900 2340C 2900 2329 2896 2320 2890 2320C 2885 2320 2880 2329 2880 2340C 2880 2351 2885 2360 2890 2360C 2896 2360 2900 2351 2900 2340zM2850 2330C 2850 2319 2843 2310 2835 2310C 2827 2310 2820 2319 2820 2330C 2820 2341 2827 2350 2835 2350C 2843 2350 2850 2341 2850 2330zM2400 2238C 2399 2231 2393 2198 2385 2165C 2369 2098 2367 2017 2379 1952C 2389 1902 2381 1893 2349 1918C 2296 1962 2322 2250 2380 2250C 2391 2250 2400 2244 2400 2238zM2725 1904C 2769 1890 2834 1876 2870 1874L2870 1874L2935 1871L3023 1723L3111 1575L3069 1572C 3046 1570 2955 1581 2867 1595C 2656 1631 2522 1628 2442 1586C 2412 1571 2386 1561 2383 1564C 2380 1567 2381 1639 2385 1725L2385 1725L2392 1881L2424 1897C 2505 1939 2610 1941 2725 1904zM2328 1896L2360 1879L2354 1732C 2351 1651 2347 1580 2345 1574C 2343 1566 2324 1571 2292 1587C 2197 1634 2055 1636 1836 1595C 1721 1573 1586 1564 1591 1578C 1593 1585 1648 1657 1713 1740L1713 1740L1832 1890L1928 1891C 1981 1891 2050 1898 2080 1905C 2154 1923 2286 1918 2328 1896zM2229 1584C 2285 1569 2328 1545 2318 1535C 2315 1532 2291 1539 2265 1551C 2193 1583 2083 1586 1906 1561C 1704 1532 1585 1524 1576 1539C 1571 1547 1591 1550 1647 1551C 1690 1551 1788 1562 1865 1575C 2033 1603 2153 1606 2229 1584zM2838 1575C 2921 1561 3017 1549 3050 1548C 3083 1546 3110 1542 3110 1538C 3110 1523 3020 1530 2863 1556C 2665 1588 2572 1586 2486 1547C 2432 1522 2410 1520 2410 1539C 2410 1549 2477 1579 2521 1590C 2584 1605 2685 1600 2838 1575zM2265 1533C 2313 1507 2303 1505 2235 1526C 2165 1548 2014 1546 1850 1521C 1776 1509 1688 1501 1655 1501C 1602 1502 1609 1504 1705 1516C 1766 1524 1856 1536 1905 1544C 1957 1553 2044 1558 2110 1557C 2206 1555 2232 1551 2265 1533zM2865 1539C 2931 1528 3005 1515 3030 1510C 3108 1495 2959 1509 2855 1527C 2685 1556 2587 1548 2458 1495C 2448 1491 2440 1492 2440 1498C 2440 1507 2515 1543 2555 1553C 2604 1565 2754 1558 2865 1539zM2203 1516C 2261 1502 2290 1486 2277 1474C 2274 1470 2239 1476 2199 1485C 2110 1507 2021 1507 1911 1486C 1864 1477 1784 1471 1726 1471L1726 1471L1625 1472L1730 1486C 1788 1493 1876 1506 1925 1514C 2041 1532 2131 1533 2203 1516zM2387 1508C 2414 1478 2440 1426 2440 1401C 2440 1375 2412 1360 2363 1360C 2307 1360 2285 1379 2293 1419C 2299 1450 2348 1529 2361 1530C 2364 1530 2376 1520 2387 1508zM2881 1505C 2927 1497 2995 1490 3033 1490C 3071 1490 3100 1486 3100 1480C 3100 1465 3009 1468 2905 1486C 2770 1508 2610 1506 2530 1481C 2452 1456 2455 1456 2470 1474C 2481 1488 2548 1514 2600 1524C 2639 1531 2789 1521 2881 1505zM2200 1468C 2245 1457 2268 1445 2259 1435C 2256 1433 2220 1437 2179 1446C 2104 1462 2022 1461 1825 1441C 1742 1433 1620 1438 1620 1449C 1620 1452 1662 1454 1712 1452C 1773 1450 1843 1456 1915 1469C 2028 1490 2112 1489 2200 1468zM2925 1466C 2980 1457 3041 1448 3060 1446C 3098 1441 2933 1447 2748 1456C 2658 1461 2615 1459 2555 1445C 2476 1428 2452 1430 2490 1450C 2566 1491 2723 1496 2925 1466zM2186 1428C 2221 1422 2250 1414 2250 1410C 2250 1406 2108 1402 1935 1401C 1680 1399 1620 1401 1620 1412C 1620 1422 1644 1424 1727 1422C 1787 1420 1860 1423 1890 1428C 1970 1442 2113 1442 2186 1428zM2998 1424C 3198 1412 3097 1400 2793 1400C 2491 1400 2442 1406 2555 1429C 2603 1439 2786 1437 2998 1424z" stroke="none" fill="#000000" fill-rule="nonzero" />
        <path d="M2525 1870C 2521 1864 2530 1860 2545 1860C 2560 1860 2569 1864 2565 1870C 2562 1876 2553 1880 2545 1880C 2537 1880 2528 1876 2525 1870z" stroke="none" fill="#000000" fill-rule="nonzero" />
        <path d="M2460 1860C 2452 1855 2448 1849 2451 1846C 2458 1838 2500 1851 2500 1861C 2500 1873 2479 1872 2460 1860z" stroke="none" fill="#000000" fill-rule="nonzero" />
        <path d="M2595 1860C 2598 1855 2612 1850 2626 1850C 2640 1850 2648 1854 2645 1860C 2642 1866 2628 1870 2614 1870C 2600 1870 2592 1866 2595 1860z" stroke="none" fill="#000000" fill-rule="nonzero" />
        <path d="M2670 1851C 2670 1839 2698 1829 2705 1839C 2708 1844 2703 1851 2694 1854C 2673 1862 2670 1862 2670 1851z" stroke="none" fill="#000000" fill-rule="nonzero" />
        <path d="M2735 1840C 2732 1836 2737 1829 2746 1826C 2768 1818 2780 1819 2780 1829C 2780 1841 2741 1850 2735 1840z" stroke="none" fill="#000000" fill-rule="nonzero" />
        <path d="M2815 1830C 2812 1825 2818 1820 2829 1820C 2841 1820 2850 1825 2850 1830C 2850 1836 2844 1840 2836 1840C 2828 1840 2818 1836 2815 1830z" stroke="none" fill="#000000" fill-rule="nonzero" />
        <path d="M2470 1810C 2462 1805 2458 1799 2461 1796C 2469 1788 2540 1802 2540 1811C 2540 1823 2489 1822 2470 1810z" stroke="none" fill="#000000" fill-rule="nonzero" />
        <path d="M2575 1810C 2578 1805 2590 1800 2601 1800C 2611 1800 2620 1805 2620 1810C 2620 1816 2608 1820 2594 1820C 2580 1820 2571 1816 2575 1810z" stroke="none" fill="#000000" fill-rule="nonzero" />
        <path d="M2650 1800C 2650 1795 2662 1790 2676 1790C 2690 1790 2699 1794 2695 1800C 2692 1806 2680 1810 2669 1810C 2659 1810 2650 1806 2650 1800z" stroke="none" fill="#000000" fill-rule="nonzero" />
        <path d="M2720 1790C 2720 1785 2734 1780 2750 1780C 2767 1780 2780 1785 2780 1790C 2780 1796 2767 1800 2750 1800C 2734 1800 2720 1796 2720 1790z" stroke="none" fill="#000000" fill-rule="nonzero" />
        <path d="M2810 1780C 2810 1775 2828 1770 2851 1770C 2875 1770 2889 1774 2885 1780C 2882 1786 2863 1790 2844 1790C 2825 1790 2810 1786 2810 1780z" stroke="none" fill="#000000" fill-rule="nonzero" />
        <path d="M2552 1773C 2533 1765 2548 1750 2576 1750C 2592 1750 2600 1755 2598 1763C 2593 1776 2572 1781 2552 1773z" stroke="none" fill="#000000" fill-rule="nonzero" />
        <path d="M2488 1763C 2478 1760 2470 1754 2470 1749C 2470 1737 2507 1737 2515 1749C 2522 1761 2510 1768 2488 1763z" stroke="none" fill="#000000" fill-rule="nonzero" />
        <path d="M2630 1761C 2630 1749 2669 1740 2675 1750C 2678 1754 2673 1761 2664 1764C 2642 1772 2630 1771 2630 1761z" stroke="none" fill="#000000" fill-rule="nonzero" />
        <path d="M2702 1749C 2707 1732 2750 1724 2750 1739C 2750 1745 2746 1750 2741 1750C 2736 1750 2724 1753 2714 1757C 2702 1761 2699 1759 2702 1749z" stroke="none" fill="#000000" fill-rule="nonzero" />
        <path d="M2780 1730C 2780 1725 2794 1720 2810 1720C 2827 1720 2840 1725 2840 1730C 2840 1736 2827 1740 2810 1740C 2794 1740 2780 1736 2780 1730z" stroke="none" fill="#000000" fill-rule="nonzero" />
        <path d="M2870 1731C 2870 1718 2897 1710 2915 1716C 2940 1726 2932 1740 2900 1740C 2884 1740 2870 1736 2870 1731z" stroke="none" fill="#000000" fill-rule="nonzero" />
        <path d="M2573 1723C 2551 1715 2559 1700 2585 1700C 2601 1700 2610 1706 2610 1715C 2610 1730 2596 1733 2573 1723z" stroke="none" fill="#000000" fill-rule="nonzero" />
        <path d="M2491 1709C 2476 1703 2470 1696 2476 1690C 2489 1677 2530 1689 2530 1706C 2530 1722 2524 1722 2491 1709z" stroke="none" fill="#000000" fill-rule="nonzero" />
        <path d="M2640 1711C 2640 1699 2669 1688 2681 1696C 2686 1699 2688 1706 2685 1711C 2677 1723 2640 1723 2640 1711z" stroke="none" fill="#000000" fill-rule="nonzero" />
        <path d="M2715 1702C 2702 1689 2712 1680 2740 1680C 2757 1680 2770 1684 2770 1689C 2770 1699 2723 1710 2715 1702z" stroke="none" fill="#000000" fill-rule="nonzero" />
        <path d="M2800 1680C 2800 1675 2814 1670 2830 1670C 2847 1670 2860 1675 2860 1680C 2860 1686 2847 1690 2830 1690C 2814 1690 2800 1686 2800 1680z" stroke="none" fill="#000000" fill-rule="nonzero" />
        <path d="M2890 1670C 2890 1665 2896 1660 2904 1660C 2912 1660 2925 1657 2934 1654C 2945 1650 2950 1653 2950 1664C 2950 1675 2941 1680 2920 1680C 2904 1680 2890 1676 2890 1670z" stroke="none" fill="#000000" fill-rule="nonzero" />
        <path d="M2118 1863C 2099 1858 2093 1840 2109 1840C 2126 1840 2150 1852 2150 1861C 2150 1870 2146 1871 2118 1863z" stroke="none" fill="#000000" fill-rule="nonzero" />
        <path d="M2180 1860C 2180 1855 2189 1850 2200 1850C 2211 1850 2220 1855 2220 1860C 2220 1866 2211 1870 2200 1870C 2189 1870 2180 1866 2180 1860z" stroke="none" fill="#000000" fill-rule="nonzero" />
        <path d="M2246 1861C 2243 1857 2252 1848 2265 1842C 2278 1836 2292 1834 2294 1839C 2297 1843 2288 1852 2275 1858C 2262 1864 2248 1866 2246 1861z" stroke="none" fill="#000000" fill-rule="nonzero" />
        <path d="M2040 1840C 2040 1835 2049 1830 2060 1830C 2071 1830 2080 1835 2080 1840C 2080 1846 2071 1850 2060 1850C 2049 1850 2040 1846 2040 1840z" stroke="none" fill="#000000" fill-rule="nonzero" />
        <path d="M1898 1828C 1907 1819 1913 1819 1922 1828C 1931 1837 1929 1840 1910 1840C 1891 1840 1889 1837 1898 1828z" stroke="none" fill="#000000" fill-rule="nonzero" />
        <path d="M1960 1830C 1960 1825 1969 1820 1979 1820C 1990 1820 2002 1825 2005 1830C 2009 1836 2000 1840 1986 1840C 1972 1840 1960 1836 1960 1830z" stroke="none" fill="#000000" fill-rule="nonzero" />
        <path d="M2125 1810C 2121 1804 2130 1800 2144 1800C 2158 1800 2170 1805 2170 1810C 2170 1816 2161 1820 2151 1820C 2140 1820 2128 1816 2125 1810z" stroke="none" fill="#000000" fill-rule="nonzero" />
        <path d="M2200 1812C 2200 1801 2279 1781 2285 1790C 2288 1795 2276 1803 2258 1809C 2221 1822 2200 1823 2200 1812z" stroke="none" fill="#000000" fill-rule="nonzero" />
        <path d="M2057 1803C 2043 1790 2051 1783 2075 1788C 2089 1790 2097 1796 2094 1801C 2088 1812 2066 1813 2057 1803z" stroke="none" fill="#000000" fill-rule="nonzero" />
        <path d="M1977 1793C 1963 1780 1971 1773 1995 1778C 2009 1780 2020 1786 2020 1791C 2020 1801 1986 1803 1977 1793z" stroke="none" fill="#000000" fill-rule="nonzero" />
        <path d="M1850 1780C 1850 1775 1868 1770 1890 1770C 1912 1770 1930 1775 1930 1780C 1930 1786 1912 1790 1890 1790C 1868 1790 1850 1786 1850 1780z" stroke="none" fill="#000000" fill-rule="nonzero" />
        <path d="M2080 1760C 2058 1754 2057 1752 2073 1745C 2084 1741 2096 1742 2103 1749C 2118 1764 2110 1768 2080 1760z" stroke="none" fill="#000000" fill-rule="nonzero" />
        <path d="M2140 1760C 2140 1755 2154 1750 2170 1750C 2187 1750 2200 1755 2200 1760C 2200 1766 2187 1770 2170 1770C 2154 1770 2140 1766 2140 1760z" stroke="none" fill="#000000" fill-rule="nonzero" />
        <path d="M2225 1751C 2219 1740 2258 1725 2268 1735C 2272 1738 2268 1745 2260 1750C 2241 1762 2233 1762 2225 1751z" stroke="none" fill="#000000" fill-rule="nonzero" />
        <path d="M1990 1740C 1990 1735 2001 1730 2015 1730C 2029 1730 2040 1735 2040 1740C 2040 1746 2029 1750 2015 1750C 2001 1750 1990 1746 1990 1740z" stroke="none" fill="#000000" fill-rule="nonzero" />
        <path d="M1810 1730C 1810 1725 1824 1720 1840 1720C 1857 1720 1870 1725 1870 1730C 1870 1736 1857 1740 1840 1740C 1824 1740 1810 1736 1810 1730z" stroke="none" fill="#000000" fill-rule="nonzero" />
        <path d="M1900 1730C 1900 1725 1914 1720 1930 1720C 1947 1720 1960 1725 1960 1730C 1960 1736 1947 1740 1930 1740C 1914 1740 1900 1736 1900 1730z" stroke="none" fill="#000000" fill-rule="nonzero" />
        <path d="M2068 1713C 2041 1706 2046 1690 2075 1690C 2091 1690 2100 1696 2100 1705C 2100 1720 2098 1721 2068 1713z" stroke="none" fill="#000000" fill-rule="nonzero" />
        <path d="M2130 1710C 2130 1705 2139 1700 2149 1700C 2160 1700 2172 1705 2175 1710C 2179 1716 2170 1720 2156 1720C 2142 1720 2130 1716 2130 1710z" stroke="none" fill="#000000" fill-rule="nonzero" />
        <path d="M2205 1700C 2198 1689 2247 1674 2258 1684C 2265 1692 2241 1710 2223 1710C 2217 1710 2208 1706 2205 1700z" stroke="none" fill="#000000" fill-rule="nonzero" />
        <path d="M1962 1689C 1964 1683 1969 1679 1973 1679C 1977 1680 1992 1680 2006 1680C 2020 1680 2029 1684 2025 1690C 2017 1704 1957 1703 1962 1689z" stroke="none" fill="#000000" fill-rule="nonzero" />
        <path d="M1775 1680C 1772 1675 1775 1667 1784 1664C 1805 1656 1845 1663 1845 1675C 1845 1689 1783 1694 1775 1680z" stroke="none" fill="#000000" fill-rule="nonzero" />
        <path d="M1870 1680C 1870 1675 1886 1670 1905 1670C 1924 1670 1940 1675 1940 1680C 1940 1686 1924 1690 1905 1690C 1886 1690 1870 1686 1870 1680z" stroke="none" fill="#000000" fill-rule="nonzero" />
        <path d="M2135 1073C 1756 1048 1344 950 1003 803C 957 784 920 766 920 764C 920 761 934 730 950 693C 967 657 979 626 978 625C 976 623 931 599 877 571C 823 543 766 511 750 500L750 500L722 480L847 248C 916 120 973 13 975 11C 978 9 1037 32 1107 63C 1236 118 1453 192 1523 205C 1543 209 1560 217 1560 222C 1560 227 1548 277 1534 332C 1515 410 1512 435 1521 441C 1539 452 1785 497 1935 517C 2120 541 2605 541 2780 517C 2913 499 3149 454 3186 440L3186 440L3208 431L3184 338C 3152 211 3151 214 3213 200C 3295 180 3508 105 3611 60C 3663 37 3714 16 3725 14C 3742 10 3763 42 3868 238C 3935 365 3990 472 3990 477C 3990 487 3900 541 3803 589C 3768 606 3740 625 3740 630C 3740 636 3751 663 3765 690C 3779 717 3790 746 3790 754C 3790 777 3542 875 3319 939C 2934 1050 2512 1098 2135 1073zM2772 970C 3071 932 3302 874 3580 767C 3638 745 3686 726 3688 724C 3690 723 3659 652 3620 567L3620 567L3548 412L3513 427C 3446 454 3176 528 3045 554C 2826 597 2695 611 2440 617C 2024 626 1692 582 1292 464C 1225 444 1168 429 1166 431C 1148 451 1030 723 1036 730C 1048 740 1241 812 1345 844C 1600 923 1860 970 2175 994C 2288 1003 2624 989 2772 970zM1054 483C 1140 311 1191 187 1178 178C 1171 174 1163 170 1160 170C 1154 170 980 517 980 529C 980 534 988 541 998 543C 1007 546 1016 548 1017 549C 1019 549 1035 520 1054 483zM3724 537C 3741 525 3736 512 3654 347C 3572 184 3551 154 3535 179C 3529 189 3690 549 3701 550C 3704 550 3714 544 3724 537zM1033 335C 1081 239 1120 158 1120 156C 1120 154 1111 150 1100 147C 1083 143 1067 167 989 317C 899 491 894 509 935 510C 941 510 985 431 1033 335zM3802 498C 3817 486 3809 467 3728 313C 3678 218 3634 140 3631 140C 3628 140 3619 144 3612 149C 3602 155 3619 198 3687 334C 3735 431 3777 510 3780 510C 3784 510 3793 504 3802 498zM954 304C 1033 154 1051 101 1019 112C 1013 114 968 191 918 284C 847 416 831 454 841 461C 849 466 858 470 861 470C 864 470 906 395 954 304zM3880 449C 3880 433 3706 110 3697 110C 3673 110 3688 153 3767 302C 3825 413 3858 466 3867 463C 3874 460 3880 454 3880 449zM1209 320C 1221 320 1261 220 1254 209C 1241 187 1221 205 1196 261C 1165 332 1165 334 1186 326C 1195 323 1205 320 1209 320zM3547 318C 3504 213 3496 200 3479 200C 3468 200 3460 206 3461 213C 3462 242 3499 314 3516 321C 3544 332 3553 331 3547 318zM1321 273C 1334 238 1332 230 1311 230C 1294 230 1270 272 1270 301C 1270 318 1312 295 1321 273zM3450 296C 3450 294 3443 276 3435 257C 3425 232 3415 222 3405 226C 3375 238 3397 300 3430 300C 3441 300 3450 298 3450 296zM1425 270C 1431 260 1382 247 1370 255C 1364 259 1360 267 1360 274C 1360 288 1416 284 1425 270zM3360 271C 3360 254 3340 248 3312 255C 3292 260 3289 263 3301 271C 3320 283 3360 283 3360 271z" stroke="none" fill="#000000" fill-rule="nonzero" />
        <path d="M2870 921C 2875 910 2885 898 2890 895C 2896 892 2900 881 2900 871C 2900 855 2894 854 2843 861C 2811 865 2784 867 2782 865C 2773 857 2792 840 2811 840C 2821 840 2830 833 2830 825C 2830 817 2821 810 2810 810C 2797 810 2793 805 2796 796C 2803 779 2765 756 2744 764C 2720 773 2729 790 2758 790C 2782 791 2783 792 2768 804C 2755 813 2754 820 2762 828C 2779 845 2763 872 2738 868C 2718 865 2715 859 2714 817C 2713 787 2718 764 2727 754C 2744 737 2781 735 2797 751C 2805 759 2810 759 2814 751C 2818 745 2832 740 2846 740C 2860 740 2870 734 2870 726C 2870 719 2876 707 2884 701C 2896 691 2900 698 2905 743C 2914 815 2921 824 2959 815C 2993 808 3001 790 2970 790C 2958 790 2950 783 2950 772C 2950 746 2978 710 2999 710C 3009 710 3020 701 3023 690C 3032 653 3047 669 3060 731C 3072 785 3075 791 3094 786C 3106 783 3119 780 3123 780C 3134 780 3121 737 3108 729C 3102 725 3102 715 3109 701C 3121 679 3136 674 3142 690C 3144 695 3155 697 3166 694C 3185 689 3187 682 3184 650C 3181 618 3186 606 3211 579L3211 579L3241 547L3229 576C 3222 592 3213 609 3209 613C 3205 618 3210 650 3220 683C 3232 728 3242 745 3254 744C 3263 743 3270 748 3270 756C 3270 771 3246 778 3056 822C 2984 838 2922 854 2918 856C 2913 859 2910 869 2910 878C 2910 888 2903 906 2894 918C 2875 946 2855 948 2870 921zM2746 833C 2736 823 2727 838 2736 851C 2742 862 2744 862 2748 851C 2750 844 2749 836 2746 833zM2884 803C 2876 772 2862 759 2841 763C 2821 766 2815 790 2834 790C 2843 790 2850 798 2850 810C 2850 823 2857 830 2870 830C 2887 830 2889 826 2884 803zM3041 773C 3036 754 3026 744 3011 742C 2979 737 2961 756 2989 765C 3001 768 3010 778 3010 786C 3010 794 3019 800 3029 800C 3045 800 3047 795 3041 773zM3208 755C 3209 754 3208 745 3204 736C 3195 713 3150 715 3150 738C 3150 764 3160 771 3184 764C 3196 760 3206 756 3208 755z" stroke="none" fill="#000000" fill-rule="nonzero" />
        <path d="M2183 881C 2065 875 2030 867 2064 854C 2073 851 2080 837 2080 824C 2080 793 2115 757 2139 765C 2152 769 2159 764 2163 750C 2166 739 2173 730 2179 730C 2186 730 2190 755 2190 795C 2190 858 2191 860 2215 860C 2233 860 2240 855 2240 840C 2240 829 2233 820 2225 820C 2217 820 2210 814 2210 808C 2211 790 2268 725 2276 733C 2280 737 2275 750 2264 761C 2250 777 2249 784 2258 787C 2264 790 2270 807 2270 826C 2270 856 2273 860 2296 860C 2321 860 2322 858 2316 820C 2311 788 2313 778 2326 773C 2335 770 2345 773 2350 780C 2362 799 2394 787 2400 761C 2403 747 2411 735 2418 732C 2427 729 2430 747 2430 794C 2430 846 2433 860 2445 860C 2462 860 2466 814 2450 808C 2444 806 2446 795 2456 782C 2468 765 2475 761 2483 769C 2501 787 2530 782 2530 761C 2530 750 2536 739 2543 737C 2552 733 2552 731 2543 731C 2523 730 2540 700 2561 700C 2571 700 2584 691 2590 679C 2597 668 2604 661 2608 664C 2611 668 2601 683 2586 699C 2559 727 2558 732 2565 794C 2570 845 2575 860 2588 860C 2601 860 2601 863 2592 872C 2577 887 2376 891 2183 881zM2398 838C 2396 823 2387 814 2373 812C 2354 809 2350 813 2350 834C 2350 855 2355 860 2376 860C 2397 860 2401 856 2398 838zM2540 835C 2540 815 2535 810 2515 810C 2495 810 2490 815 2490 835C 2490 855 2495 860 2515 860C 2535 860 2540 855 2540 835zM2160 825C 2160 801 2129 774 2116 787C 2113 790 2110 806 2110 822C 2110 845 2114 850 2135 850C 2155 850 2160 845 2160 825z" stroke="none" fill="#000000" fill-rule="nonzero" />
        <path d="M1795 839C 1619 808 1415 744 1443 729C 1451 724 1477 727 1504 736C 1563 756 1577 747 1521 724C 1476 706 1469 693 1502 688C 1527 684 1539 660 1516 660C 1486 660 1500 635 1535 624C 1554 618 1570 617 1570 621C 1570 626 1565 630 1560 630C 1554 630 1552 640 1556 654C 1559 667 1557 681 1551 685C 1539 692 1546 710 1560 710C 1566 710 1576 694 1584 675C 1592 656 1604 640 1609 640C 1623 640 1623 644 1603 706C 1594 736 1589 763 1593 766C 1605 778 1618 759 1630 711C 1637 679 1648 660 1659 657C 1676 653 1676 656 1659 716L1659 716L1641 779L1678 790C 1698 795 1726 800 1738 800C 1774 800 1759 777 1717 767C 1676 757 1669 737 1700 720C 1716 712 1720 712 1720 724C 1720 737 1740 750 1761 750C 1766 750 1770 741 1770 731C 1770 712 1798 675 1806 683C 1808 685 1805 713 1799 745C 1791 790 1791 805 1801 811C 1821 823 1831 811 1828 778C 1826 757 1831 744 1844 736C 1858 728 1864 728 1867 738C 1874 755 1910 753 1910 735C 1910 726 1916 717 1924 714C 1932 711 1936 702 1933 694C 1930 685 1934 680 1944 680C 1953 680 1973 673 1988 664C 2010 651 2009 653 1981 679C 1953 704 1945 719 1939 767C 1933 813 1934 826 1946 833C 1966 844 1954 860 1927 859C 1915 859 1856 850 1795 839zM1900 821C 1900 816 1903 805 1906 796C 1911 784 1906 780 1887 780C 1861 780 1842 815 1864 824C 1883 832 1900 830 1900 821z" stroke="none" fill="#000000" fill-rule="nonzero" />
	</g>
</g>
</svg>